{
    "asset" : {
        "generator" : "Khronos glTF Blender I/O v1.6.16",
        "version" : "2.0"
    },
    "scene" : 0,
    "scenes" : [
        {
            "name" : "Scene",
            "nodes" : [
                0,
                1,
                2,
                3
            ]
        }
    ],
    "nodes" : [
        {
            "mesh" : 0,
            "name" : "\u5186\u67f1"
        },
        {
            "mesh" : 1,
            "name" : "\u5186\u67f1.001"
        },
        {
            "mesh" : 2,
            "name" : "\u7403"
        },
        {
            "mesh" : 3,
            "name" : "\u7acb\u65b9\u4f53"
        }
    ],
    "materials" : [
        {
            "doubleSided" : true,
            "name" : "\u30de\u30c6\u30ea\u30a2\u30eb.002",
            "pbrMetallicRoughness" : {
                "baseColorFactor" : [
                    0.8000000715255737,
                    0.7463866472244263,
                    0.029969194903969765,
                    1
                ],
                "metallicFactor" : 0,
                "roughnessFactor" : 0.5
            }
        },
        {
            "doubleSided" : true,
            "name" : "\u30de\u30c6\u30ea\u30a2\u30eb.001",
            "pbrMetallicRoughness" : {
                "baseColorFactor" : [
                    0.5847609639167786,
                    0.532160758972168,
                    0.6257991790771484,
                    1
                ],
                "metallicFactor" : 0,
                "roughnessFactor" : 0.5
            }
        },
        {
            "doubleSided" : true,
            "name" : "\u30de\u30c6\u30ea\u30a2\u30eb.003",
            "pbrMetallicRoughness" : {
                "baseColorFactor" : [
                    0.8000000715255737,
                    0.3865329325199127,
                    0.04785436391830444,
                    1
                ],
                "metallicFactor" : 0,
                "roughnessFactor" : 0.5
            }
        },
        {
            "doubleSided" : true,
            "name" : "\u30de\u30c6\u30ea\u30a2\u30eb",
            "pbrMetallicRoughness" : {
                "baseColorFactor" : [
                    0.8000000715255737,
                    0,
                    0.007503132335841656,
                    1
                ],
                "metallicFactor" : 0,
                "roughnessFactor" : 0.46694216132164
            }
        }
    ],
    "meshes" : [
        {
            "name" : "\u5186\u67f1",
            "primitives" : [
                {
                    "attributes" : {
                        "POSITION" : 0,
                        "NORMAL" : 1,
                        "TEXCOORD_0" : 2
                    },
                    "indices" : 3,
                    "material" : 0
                }
            ]
        },
        {
            "name" : "\u5186\u67f1.001",
            "primitives" : [
                {
                    "attributes" : {
                        "POSITION" : 4,
                        "NORMAL" : 5,
                        "TEXCOORD_0" : 6
                    },
                    "indices" : 7,
                    "material" : 1
                }
            ]
        },
        {
            "name" : "\u7403",
            "primitives" : [
                {
                    "attributes" : {
                        "POSITION" : 8,
                        "NORMAL" : 9,
                        "TEXCOORD_0" : 10
                    },
                    "indices" : 11,
                    "material" : 2
                }
            ]
        },
        {
            "name" : "\u7acb\u65b9\u4f53",
            "primitives" : [
                {
                    "attributes" : {
                        "POSITION" : 12,
                        "NORMAL" : 13,
                        "TEXCOORD_0" : 14
                    },
                    "indices" : 15,
                    "material" : 3
                }
            ]
        }
    ],
    "accessors" : [
        {
            "bufferView" : 0,
            "componentType" : 5126,
            "count" : 30,
            "max" : [
                0.42937058210372925,
                0.039794690907001495,
                0.35499170422554016
            ],
            "min" : [
                -0.4292292594909668,
                -0.05792950838804245,
                -0.4615853428840637
            ],
            "type" : "VEC3"
        },
        {
            "bufferView" : 1,
            "componentType" : 5126,
            "count" : 30,
            "type" : "VEC3"
        },
        {
            "bufferView" : 2,
            "componentType" : 5126,
            "count" : 30,
            "type" : "VEC2"
        },
        {
            "bufferView" : 3,
            "componentType" : 5123,
            "count" : 48,
            "type" : "SCALAR"
        },
        {
            "bufferView" : 4,
            "componentType" : 5126,
            "count" : 306,
            "max" : [
                0.03262992203235626,
                1.2901816368103027,
                0.02232029289007187
            ],
            "min" : [
                -0.03248865529894829,
                -0.00815378688275814,
                -0.04276740178465843
            ],
            "type" : "VEC3"
        },
        {
            "bufferView" : 5,
            "componentType" : 5126,
            "count" : 306,
            "type" : "VEC3"
        },
        {
            "bufferView" : 6,
            "componentType" : 5126,
            "count" : 306,
            "type" : "VEC2"
        },
        {
            "bufferView" : 7,
            "componentType" : 5123,
            "count" : 600,
            "type" : "SCALAR"
        },
        {
            "bufferView" : 8,
            "componentType" : 5126,
            "count" : 340,
            "max" : [
                0.0688348188996315,
                1.405935525894165,
                0.062110282480716705
            ],
            "min" : [
                -0.06869354844093323,
                1.259098768234253,
                -0.08249558508396149
            ],
            "type" : "VEC3"
        },
        {
            "bufferView" : 9,
            "componentType" : 5126,
            "count" : 340,
            "type" : "VEC3"
        },
        {
            "bufferView" : 10,
            "componentType" : 5126,
            "count" : 340,
            "type" : "VEC2"
        },
        {
            "bufferView" : 11,
            "componentType" : 5123,
            "count" : 480,
            "type" : "SCALAR"
        },
        {
            "bufferView" : 12,
            "componentType" : 5126,
            "count" : 24,
            "max" : [
                0.014973018318414688,
                1.2579171657562256,
                -0.017054850235581398
            ],
            "min" : [
                -0.011726956814527512,
                0.7049790620803833,
                -0.5699930191040039
            ],
            "type" : "VEC3"
        },
        {
            "bufferView" : 13,
            "componentType" : 5126,
            "count" : 24,
            "type" : "VEC3"
        },
        {
            "bufferView" : 14,
            "componentType" : 5126,
            "count" : 24,
            "type" : "VEC2"
        },
        {
            "bufferView" : 15,
            "componentType" : 5123,
            "count" : 36,
            "type" : "SCALAR"
        }
    ],
    "bufferViews" : [
        {
            "buffer" : 0,
            "byteLength" : 360,
            "byteOffset" : 0
        },
        {
            "buffer" : 0,
            "byteLength" : 360,
            "byteOffset" : 360
        },
        {
            "buffer" : 0,
            "byteLength" : 240,
            "byteOffset" : 720
        },
        {
            "buffer" : 0,
            "byteLength" : 96,
            "byteOffset" : 960
        },
        {
            "buffer" : 0,
            "byteLength" : 3672,
            "byteOffset" : 1056
        },
        {
            "buffer" : 0,
            "byteLength" : 3672,
            "byteOffset" : 4728
        },
        {
            "buffer" : 0,
            "byteLength" : 2448,
            "byteOffset" : 8400
        },
        {
            "buffer" : 0,
            "byteLength" : 1200,
            "byteOffset" : 10848
        },
        {
            "buffer" : 0,
            "byteLength" : 4080,
            "byteOffset" : 12048
        },
        {
            "buffer" : 0,
            "byteLength" : 4080,
            "byteOffset" : 16128
        },
        {
            "buffer" : 0,
            "byteLength" : 2720,
            "byteOffset" : 20208
        },
        {
            "buffer" : 0,
            "byteLength" : 960,
            "byteOffset" : 22928
        },
        {
            "buffer" : 0,
            "byteLength" : 288,
            "byteOffset" : 23888
        },
        {
            "buffer" : 0,
            "byteLength" : 288,
            "byteOffset" : 24176
        },
        {
            "buffer" : 0,
            "byteLength" : 192,
            "byteOffset" : 24464
        },
        {
            "buffer" : 0,
            "byteLength" : 72,
            "byteOffset" : 24656
        }
    ],
    "buffers" : [
        {
            "byteLength" : 24728,
            "uri" : "flag.bin"
        }
    ]
}
