{
    "asset" : {
        "generator" : "Khronos glTF Blender I/O v1.4.40",
        "version" : "2.0"
    },
    "scene" : 0,
    "scenes" : [
        {
            "name" : "Scene",
            "nodes" : [
                0,
                1,
                2,
                3,
                4,
                5
            ]
        }
    ],
    "nodes" : [
        {
            "mesh" : 0,
            "name" : "Torus.001"
        },
        {
            "mesh" : 1,
            "name" : "\u5186\u67f1"
        },
        {
            "mesh" : 2,
            "name" : "\u7acb\u65b9\u4f53"
        },
        {
            "mesh" : 3,
            "name" : "\u7acb\u65b9\u4f53.001"
        },
        {
            "mesh" : 4,
            "name" : "\u7acb\u65b9\u4f53.002"
        },
        {
            "mesh" : 5,
            "name" : "\u7acb\u65b9\u4f53.003"
        }
    ],
    "meshes" : [
        {
            "name" : "Torus.001",
            "primitives" : [
                {
                    "attributes" : {
                        "POSITION" : 0,
                        "NORMAL" : 1,
                        "TEXCOORD_0" : 2
                    },
                    "indices" : 3
                }
            ]
        },
        {
            "name" : "\u5186\u67f1",
            "primitives" : [
                {
                    "attributes" : {
                        "POSITION" : 4,
                        "NORMAL" : 5,
                        "TEXCOORD_0" : 6
                    },
                    "indices" : 7
                }
            ]
        },
        {
            "name" : "\u7acb\u65b9\u4f53.001",
            "primitives" : [
                {
                    "attributes" : {
                        "POSITION" : 8,
                        "NORMAL" : 9,
                        "TEXCOORD_0" : 10
                    },
                    "indices" : 11
                }
            ]
        },
        {
            "name" : "\u7acb\u65b9\u4f53.002",
            "primitives" : [
                {
                    "attributes" : {
                        "POSITION" : 12,
                        "NORMAL" : 13,
                        "TEXCOORD_0" : 14
                    },
                    "indices" : 15
                }
            ]
        },
        {
            "name" : "\u7acb\u65b9\u4f53.003",
            "primitives" : [
                {
                    "attributes" : {
                        "POSITION" : 16,
                        "NORMAL" : 17,
                        "TEXCOORD_0" : 18
                    },
                    "indices" : 19
                }
            ]
        },
        {
            "name" : "\u7acb\u65b9\u4f53.004",
            "primitives" : [
                {
                    "attributes" : {
                        "POSITION" : 20,
                        "NORMAL" : 21,
                        "TEXCOORD_0" : 22
                    },
                    "indices" : 23
                }
            ]
        }
    ],
    "accessors" : [
        {
            "bufferView" : 0,
            "componentType" : 5126,
            "count" : 96,
            "max" : [
                1.5199999809265137,
                0.0952627956867218,
                1.5199999809265137
            ],
            "min" : [
                -1.5199999809265137,
                -0.0952627956867218,
                -1.5199999809265137
            ],
            "type" : "VEC3"
        },
        {
            "bufferView" : 1,
            "componentType" : 5126,
            "count" : 96,
            "type" : "VEC3"
        },
        {
            "bufferView" : 2,
            "componentType" : 5126,
            "count" : 96,
            "type" : "VEC2"
        },
        {
            "bufferView" : 3,
            "componentType" : 5123,
            "count" : 144,
            "type" : "SCALAR"
        },
        {
            "bufferView" : 4,
            "componentType" : 5126,
            "count" : 48,
            "max" : [
                0.06999999284744263,
                0.10000003129243851,
                0.06999999284744263
            ],
            "min" : [
                -0.06999999284744263,
                -0.10000003129243851,
                -0.06999999284744263
            ],
            "type" : "VEC3"
        },
        {
            "bufferView" : 5,
            "componentType" : 5126,
            "count" : 48,
            "type" : "VEC3"
        },
        {
            "bufferView" : 6,
            "componentType" : 5126,
            "count" : 48,
            "type" : "VEC2"
        },
        {
            "bufferView" : 7,
            "componentType" : 5123,
            "count" : 84,
            "type" : "SCALAR"
        },
        {
            "bufferView" : 8,
            "componentType" : 5126,
            "count" : 24,
            "max" : [
                -0.007469236850738525,
                0.07480096817016602,
                -0.0020233988761901855
            ],
            "min" : [
                -1.2421104907989502,
                -0.06699088215827942,
                -0.6658187508583069
            ],
            "type" : "VEC3"
        },
        {
            "bufferView" : 9,
            "componentType" : 5126,
            "count" : 24,
            "type" : "VEC3"
        },
        {
            "bufferView" : 10,
            "componentType" : 5126,
            "count" : 24,
            "type" : "VEC2"
        },
        {
            "bufferView" : 11,
            "componentType" : 5123,
            "count" : 36,
            "type" : "SCALAR"
        },
        {
            "bufferView" : 12,
            "componentType" : 5126,
            "count" : 24,
            "max" : [
                0.6658187508583069,
                0.07480096817016602,
                -0.007469236850738525
            ],
            "min" : [
                0.0020233839750289917,
                -0.06699088215827942,
                -1.2421104907989502
            ],
            "type" : "VEC3"
        },
        {
            "bufferView" : 13,
            "componentType" : 5126,
            "count" : 24,
            "type" : "VEC3"
        },
        {
            "bufferView" : 14,
            "componentType" : 5126,
            "count" : 24,
            "type" : "VEC2"
        },
        {
            "bufferView" : 15,
            "componentType" : 5123,
            "count" : 36,
            "type" : "SCALAR"
        },
        {
            "bufferView" : 16,
            "componentType" : 5126,
            "count" : 24,
            "max" : [
                -0.002023344626650214,
                0.07480096817016602,
                1.2421104907989502
            ],
            "min" : [
                -0.6658186912536621,
                -0.06699088215827942,
                0.007469236850738525
            ],
            "type" : "VEC3"
        },
        {
            "bufferView" : 17,
            "componentType" : 5126,
            "count" : 24,
            "type" : "VEC3"
        },
        {
            "bufferView" : 18,
            "componentType" : 5126,
            "count" : 24,
            "type" : "VEC2"
        },
        {
            "bufferView" : 19,
            "componentType" : 5123,
            "count" : 36,
            "type" : "SCALAR"
        },
        {
            "bufferView" : 20,
            "componentType" : 5126,
            "count" : 24,
            "max" : [
                1.2421104907989502,
                0.07480096817016602,
                0.6658186912536621
            ],
            "min" : [
                0.007469236850738525,
                -0.06699088215827942,
                0.002023290377110243
            ],
            "type" : "VEC3"
        },
        {
            "bufferView" : 21,
            "componentType" : 5126,
            "count" : 24,
            "type" : "VEC3"
        },
        {
            "bufferView" : 22,
            "componentType" : 5126,
            "count" : 24,
            "type" : "VEC2"
        },
        {
            "bufferView" : 23,
            "componentType" : 5123,
            "count" : 36,
            "type" : "SCALAR"
        }
    ],
    "bufferViews" : [
        {
            "buffer" : 0,
            "byteLength" : 1152,
            "byteOffset" : 0
        },
        {
            "buffer" : 0,
            "byteLength" : 1152,
            "byteOffset" : 1152
        },
        {
            "buffer" : 0,
            "byteLength" : 768,
            "byteOffset" : 2304
        },
        {
            "buffer" : 0,
            "byteLength" : 288,
            "byteOffset" : 3072
        },
        {
            "buffer" : 0,
            "byteLength" : 576,
            "byteOffset" : 3360
        },
        {
            "buffer" : 0,
            "byteLength" : 576,
            "byteOffset" : 3936
        },
        {
            "buffer" : 0,
            "byteLength" : 384,
            "byteOffset" : 4512
        },
        {
            "buffer" : 0,
            "byteLength" : 168,
            "byteOffset" : 4896
        },
        {
            "buffer" : 0,
            "byteLength" : 288,
            "byteOffset" : 5064
        },
        {
            "buffer" : 0,
            "byteLength" : 288,
            "byteOffset" : 5352
        },
        {
            "buffer" : 0,
            "byteLength" : 192,
            "byteOffset" : 5640
        },
        {
            "buffer" : 0,
            "byteLength" : 72,
            "byteOffset" : 5832
        },
        {
            "buffer" : 0,
            "byteLength" : 288,
            "byteOffset" : 5904
        },
        {
            "buffer" : 0,
            "byteLength" : 288,
            "byteOffset" : 6192
        },
        {
            "buffer" : 0,
            "byteLength" : 192,
            "byteOffset" : 6480
        },
        {
            "buffer" : 0,
            "byteLength" : 72,
            "byteOffset" : 6672
        },
        {
            "buffer" : 0,
            "byteLength" : 288,
            "byteOffset" : 6744
        },
        {
            "buffer" : 0,
            "byteLength" : 288,
            "byteOffset" : 7032
        },
        {
            "buffer" : 0,
            "byteLength" : 192,
            "byteOffset" : 7320
        },
        {
            "buffer" : 0,
            "byteLength" : 72,
            "byteOffset" : 7512
        },
        {
            "buffer" : 0,
            "byteLength" : 288,
            "byteOffset" : 7584
        },
        {
            "buffer" : 0,
            "byteLength" : 288,
            "byteOffset" : 7872
        },
        {
            "buffer" : 0,
            "byteLength" : 192,
            "byteOffset" : 8160
        },
        {
            "buffer" : 0,
            "byteLength" : 72,
            "byteOffset" : 8352
        }
    ],
    "buffers" : [
        {
            "byteLength" : 8424,
            "uri" : "Fan.bin"
        }
    ]
}
